<?xml version="1.0" encoding="UTF-8" standalone="no"?>
<svg
   xmlns:osb="http://www.openswatchbook.org/uri/2009/osb"
   xmlns:dc="http://purl.org/dc/elements/1.1/"
   xmlns:cc="http://creativecommons.org/ns#"
   xmlns:rdf="http://www.w3.org/1999/02/22-rdf-syntax-ns#"
   xmlns:svg="http://www.w3.org/2000/svg"
   xmlns="http://www.w3.org/2000/svg"
   xmlns:sodipodi="http://sodipodi.sourceforge.net/DTD/sodipodi-0.dtd"
   xmlns:inkscape="http://www.inkscape.org/namespaces/inkscape"
   width="48"
   height="31"
   viewBox="0 0 12.700008 8.2020885"
   version="1.1"
   id="svg4919"
   inkscape:version="1.0beta1 (32d4812, 2019-09-19)"
   sodipodi:docname="kopia-flat.svg"
   inkscape:export-filename="/Users/jarek/Projects/kopia-ui/resources/icon.png"
   inkscape:export-xdpi="96"
   inkscape:export-ydpi="96">
  <defs
     id="defs4913">
    <linearGradient
       osb:paint="gradient"
       id="linearGradient4578">
      <stop
         id="stop4574"
         offset="0"
         style="stop-color:#000000;stop-opacity:1;" />
      <stop
         id="stop4576"
         offset="1"
         style="stop-color:#0066ff;stop-opacity:0;" />
    </linearGradient>
    <linearGradient
       id="linearGradient2345"
       osb:paint="gradient">
      <stop
         style="stop-color:#000000;stop-opacity:1;"
         offset="0"
         id="stop2341" />
      <stop
         style="stop-color:#0066ff;stop-opacity:0;"
         offset="1"
         id="stop2343" />
    </linearGradient>
  </defs>
  <sodipodi:namedview
     inkscape:pagecheckerboard="false"
     id="base"
     pagecolor="#ffffff"
     bordercolor="#666666"
     borderopacity="1.0"
     inkscape:pageopacity="0.0"
     inkscape:pageshadow="2"
     inkscape:zoom="5.6571604"
     inkscape:cx="53.451757"
     inkscape:cy="30.205905"
     inkscape:document-units="mm"
     inkscape:current-layer="layer1"
     showgrid="false"
     inkscape:window-width="1440"
     inkscape:window-height="795"
     inkscape:window-x="0"
     inkscape:window-y="23"
     inkscape:window-maximized="0"
     units="px"
     width="64px"
     showguides="false"
     inkscape:snap-text-baseline="true"
     inkscape:document-rotation="0" />
  <metadata
     id="metadata4916">
    <rdf:RDF>
      <cc:Work
         rdf:about="">
        <dc:format>image/svg+xml</dc:format>
        <dc:type
           rdf:resource="http://purl.org/dc/dcmitype/StillImage" />
        <dc:title></dc:title>
      </cc:Work>
    </rdf:RDF>
  </metadata>
  <g
     inkscape:label="Layer 1"
     inkscape:groupmode="layer"
     id="layer1"
     transform="translate(0,-280.06662)">
    <g
       id="g849"
       transform="matrix(0.04649709,0,0,0.04649709,-0.02134367,277.52719)"
       inkscape:export-xdpi="65.472687"
       inkscape:export-ydpi="65.472687">
      <g
         inkscape:export-ydpi="9.5134048"
         inkscape:export-xdpi="9.5134048"
         inkscape:export-filename="/Users/jarek/Projects/kopia-app/icons/converted/g886.png"
         style="fill:#2a7fff;fill-opacity:1;stroke:none;stroke-width:0.57724;stroke-miterlimit:4;stroke-dasharray:none;stroke-opacity:0"
         transform="matrix(19.66121,0,0,20.144513,53.912845,-5697.4527)"
         id="g886">
        <path
           style="fill:#2a7fff;fill-opacity:1;stroke:none;stroke-width:0.365129;stroke-linecap:round;stroke-linejoin:round;stroke-miterlimit:4;stroke-dasharray:none;stroke-opacity:1"
           d="m 3.68292,285.81098 a 3.7143042,3.9255907 0 0 1 3.2394206,2.00885 2.978621,3.1480586 0 0 1 0.9055101,-0.15021 2.978621,3.1480586 0 0 1 2.9786373,3.14795 2.978621,3.1480586 0 0 1 -2.6197318,3.12262 v 0.0254 H 7.8278507 0.29155891 v -8.5e-4 a 2.3864853,2.5222394 0 0 1 -0.31315577,0.0246 2.3864853,2.5222394 0 0 1 -2.38640124,-2.52228 2.3864853,2.5222394 0 0 1 2.38640124,-2.52228 2.3864853,2.5222394 0 0 1 0.07019771,0.002 3.7143042,3.9255907 0 0 1 3.63432355,-3.136 z"
           id="rect4799-3"
           inkscape:connector-curvature="0"
           inkscape:export-xdpi="96"
           inkscape:export-ydpi="96" />
      </g>
      <g
         inkscape:export-filename="/Users/jarek/Projects/kopia-app/icons/converted/g886.png"
         inkscape:export-ydpi="9.5134048"
         inkscape:export-xdpi="9.5134048"
         style="fill:#e4e4e4;fill-opacity:1;stroke:none;stroke-width:0.280131;stroke-miterlimit:4;stroke-dasharray:none;stroke-opacity:1"
         id="g10"
         transform="matrix(2.1802385,2.8772027,-1.7541947,3.575994,104.54534,-155.29438)">
        <g
           style="fill:#e4e4e4;fill-opacity:1;stroke:none;stroke-width:0.280131;stroke-miterlimit:4;stroke-dasharray:none;stroke-opacity:1"
           id="g883">
          <path
             inkscape:connector-curvature="0"
             d="m 52.475497,57.904193 2.118969,-4.700554 c 0.258337,-0.573742 0.794452,-1.452559 1.188918,-1.952342 l 2.189741,-5.099694 c 0.171725,-0.02042 0.344927,-0.09102 0.466732,-0.194079 l 0.630265,-0.546749 c 0.243632,-0.206882 0.608139,-0.67108 0.736916,-0.95794 l 0.31965,-0.665782 c 0.05776,-0.130508 0.08615,-0.298735 0.08241,-0.463714 l 4.176599,-5.28537 c 0.206096,0.05958 0.452753,0.01539 0.625077,-0.131566 l 0.268535,-0.229977 c 0.242872,-0.207632 0.555873,-0.62096 0.686215,-0.907865 l 0.122894,-0.272803 c 0.08361,-0.186032 0.07645,-0.420341 0.0074,-0.621993 L 81.942439,16.980848 c 0.394443,-0.499011 -3.499736,2.827825 -4.003591,3.221242 L 63.158733,32.961034 c 0,0 -0.470077,-0.09048 -0.672002,2.42e-4 l -0.315191,0.142618 c -0.289847,0.131081 -0.692958,0.446742 -0.889398,0.696224 l -0.197198,0.248733 c -0.137168,0.173703 -0.173217,0.41621 -0.114352,0.619702 l -5.260067,4.10647 c -0.211006,-0.0255 -0.444855,0.0083 -0.614306,0.0842 l -0.765391,0.385589 c -0.289846,0.131081 -0.709835,0.462661 -0.906298,0.712915 l -0.479332,0.595593 c -0.106358,0.135778 -0.173913,0.333686 -0.180977,0.520579 l -4.899926,2.25652 c -0.503833,0.392646 -1.390045,0.927547 -1.970452,1.187416 l -5.715688,2.569121 c -0.579625,0.259846 -0.824906,1.000611 -0.618168,1.569324 0,0 0.927303,2.582054 3.611972,5.535017 l -2.71371,2.679373 c -0.644457,-0.484249 -0.865773,-0.265673 -1.130524,-0.0049 l -0.05151,0.05087 c -0.264752,0.260725 -0.48609,0.480073 0.0055,1.114567 l -3.777657,3.730903 c -0.643676,-0.484272 -0.865751,-0.266445 -1.129765,-0.0042 l -0.05148,0.0501 c -0.264751,0.260725 -0.485307,0.480051 0.0055,1.11534 L 22.80456,74.18879 c -0.113497,0.112842 1.950106,1.40756 1.950106,1.40756 l 11.27516,-10.990626 c 0.645262,0.483455 0.865773,0.265673 1.129742,0.005 l 0.05148,-0.0501 c 0.264774,-0.261497 0.486089,-0.480073 -0.0054,-1.116112 l 3.777612,-3.729358 c 0.643676,0.484272 0.865796,0.264901 1.129765,0.0042 l 0.05148,-0.0501 c 0.264797,-0.262269 0.48609,-0.480074 -0.0055,-1.11534 l 2.723413,-2.690456 c 3.01624,2.625495 6.011328,2.658358 6.011328,2.658358 0.577766,0.201527 1.322586,-0.04231 1.581751,-0.617623 z"
             id="path8"
             sodipodi:nodetypes="ccccccccccccccccccccccccccccccccccccccccccccccccccccccc"
             style="fill:#e4e4e4;fill-opacity:1;stroke:none;stroke-width:0.386847;stroke-miterlimit:4;stroke-dasharray:none;stroke-dashoffset:0;stroke-opacity:1" />
        </g>
      </g>
      <ellipse
         inkscape:export-ydpi="9.5134048"
         inkscape:export-xdpi="9.5134048"
         inkscape:export-filename="/Users/jarek/Projects/kopia-app/icons/converted/g886.png"
         ry="1.5360007"
         rx="1.6261826"
         cy="192.16341"
         cx="190.19328"
         id="path876"
         style="fill:#b3b3b3;fill-opacity:1;stroke:#00ff00;stroke-width:0.179274;stroke-linecap:round;stroke-linejoin:round;stroke-miterlimit:4;stroke-dasharray:none;stroke-opacity:1" />
    </g>
  </g>
</svg>
