<svg xmlns="http://www.w3.org/2000/svg" width="320" height="320"><style><![CDATA[.B{text-decoration:normal}.C{fill:none}.D{stroke-linejoin:round}.E{stroke-opacity:.9}.F{stroke:#fff}.G{font-family:Arial}.H{font-size:12px}.I{stroke-miterlimit:2}.J{stroke-width:3}.K{font-family:arial, sans-serif}.L{font-size:9.9px}.M{stroke-miterlimit:10}.N{stroke-linecap:round}]]></style><g transform="scale(2)"><path fill="#fff" d="M0 0h160v160H0z"/><g stroke="#000" stroke-width="1.5" class="M E"><path paint-order="fill stroke markers" d="M4 3v157" class="C"/><path paint-order="stroke fill markers" d="M4 1.5l3.106 11.591H.894L4 1.5l3.106 11.591" fill-opacity=".9" class="D"/><path paint-order="fill stroke markers" d="M0 152h157" class="C"/><path paint-order="stroke fill markers" d="M158.5 152l-11.591 3.106v-6.212L158.5 152l-11.591 3.106" fill-opacity=".9" class="D"/></g><text x="63.967" y="146.381" class="B C F G H I J">Data Processed</text><text fill="#000" x="63.967" y="146.381" class="B G H">Data Processed</text><g transform="matrix(0 -1 1 0 14.902439 60.133335)" class="B G H"><text x="0" y="0" class="C F I J">Memory</text><text fill="#000" x="0" y="0">Memory</text></g><g class="C D M N"><path paint-order="fill stroke markers" d="M3.402 151.881h0L19.09 75.31m.41.19h140" stroke="#c74440"/><path paint-order="fill stroke markers" d="M3.402 151.881h0l97.561-76.19m-.463-.191h59" stroke="#388c46"/></g><text y="71.527" x="42.284" class="B C D F I J K L">pgzip</text><text fill="#c74440" y="71.527" x="42.284" class="B K L">pgzip</text><text y="118.91" x="61.933" class="B C D F I J K L">s2</text><text fill="#388c46" y="118.91" x="61.933" class="B K L">s2</text></g></svg>
