<?xml version="1.0" standalone="no"?>
<!DOCTYPE svg PUBLIC "-//W3C//DTD SVG 20010904//EN"
 "http://www.w3.org/TR/2001/REC-SVG-20010904/DTD/svg10.dtd">
<svg version="1.0" xmlns="http://www.w3.org/2000/svg"
 width="1536.000000pt" height="1536.000000pt" viewBox="0 0 1536.000000 1536.000000"
 preserveAspectRatio="xMidYMid meet">
<metadata>
Created by potrace 1.11, written by Peter Selinger 2001-2013
</metadata>
<g transform="translate(0.000000,1536.000000) scale(0.100000,-0.100000)"
fill="#000000" stroke="none">
<path d="M6997 12333 c-1 -1 -54 -4 -117 -7 -63 -3 -135 -8 -160 -10 -92 -10
-166 -18 -185 -23 -11 -2 -36 -5 -55 -7 -19 -2 -46 -6 -60 -10 -14 -3 -36 -8
-50 -10 -14 -2 -55 -11 -93 -20 -37 -9 -80 -18 -97 -21 -16 -3 -40 -9 -54 -15
-15 -5 -26 -7 -26 -4 0 4 -7 1 -15 -6 -8 -7 -15 -10 -15 -7 0 4 -18 0 -40 -8
-22 -8 -40 -12 -40 -8 0 3 -7 -1 -17 -8 -9 -8 -17 -12 -17 -10 -1 4 -144 -40
-192 -60 -16 -7 -31 -13 -34 -13 -25 -5 -186 -75 -310 -134 -52 -25 -99 -46
-103 -46 -4 -1 -12 -8 -17 -16 -5 -8 -10 -12 -10 -8 0 4 -43 -17 -96 -47 -53
-30 -100 -55 -104 -55 -5 0 -10 -3 -12 -8 -1 -4 -39 -30 -83 -57 -72 -44 -141
-91 -155 -105 -3 -3 -23 -17 -45 -31 -172 -112 -549 -458 -705 -648 -19 -24
-46 -55 -60 -70 -14 -15 -38 -45 -55 -66 -16 -22 -33 -44 -37 -50 -4 -5 -18
-22 -30 -37 -13 -14 -30 -36 -38 -49 -8 -12 -30 -42 -47 -66 -18 -24 -33 -46
-33 -48 0 -6 -40 -66 -50 -75 -12 -11 -90 -142 -90 -151 0 -5 -4 -9 -9 -9 -5
0 -12 -8 -15 -17 -9 -24 -38 -77 -45 -83 -3 -3 -20 -32 -36 -65 -17 -33 -33
-61 -37 -63 -5 -2 -8 -12 -8 -22 0 -10 -3 -20 -7 -22 -10 -4 -73 -130 -73
-146 0 -7 -4 -12 -8 -12 -4 0 -8 -10 -9 -21 -1 -12 -9 -29 -17 -38 -9 -10 -16
-22 -16 -28 0 -6 -12 -37 -26 -69 -40 -93 -57 -135 -54 -142 0 -1 -7 -16 -15
-32 -9 -17 -12 -30 -8 -30 5 0 3 -4 -2 -8 -8 -5 -43 -101 -60 -162 -1 -3 -4
-12 -8 -20 -6 -16 -26 -89 -27 -102 0 -4 -7 -26 -15 -48 -14 -41 -65 -245 -80
-325 -3 -11 -6 -29 -9 -40 -2 -11 -5 -23 -5 -27 -1 -4 -46 -6 -102 -5 -55 1
-102 0 -105 -2 -2 -3 -30 -6 -62 -7 -63 -3 -137 -10 -167 -17 -11 -3 -40 -8
-65 -11 -25 -4 -52 -8 -60 -10 -8 -2 -34 -7 -57 -11 -24 -4 -43 -12 -43 -17 0
-5 -4 -6 -10 -3 -9 5 -127 -24 -175 -44 -11 -5 -60 -23 -110 -41 -97 -35 -276
-118 -286 -133 -3 -5 -10 -9 -15 -9 -15 1 -166 -88 -201 -118 -7 -5 -15 -10
-18 -10 -8 0 -161 -115 -240 -181 -45 -38 -256 -251 -295 -298 -25 -30 -54
-64 -65 -77 -11 -12 -27 -32 -35 -45 -8 -12 -25 -34 -38 -49 -12 -15 -22 -32
-22 -38 0 -6 -4 -12 -8 -14 -12 -4 -113 -158 -104 -158 4 0 2 -4 -5 -8 -21
-13 -203 -369 -203 -396 0 -5 -7 -22 -15 -39 -27 -60 -55 -137 -49 -137 4 0 2
-6 -3 -12 -8 -11 -32 -84 -39 -120 -1 -5 -3 -10 -4 -13 -1 -3 -3 -8 -4 -12 -1
-5 -5 -17 -9 -28 -3 -11 -8 -31 -11 -45 -2 -14 -9 -45 -16 -70 -7 -25 -13 -54
-15 -65 -1 -11 -5 -31 -8 -45 -4 -14 -9 -43 -12 -65 -3 -22 -8 -53 -10 -70
-28 -174 -38 -513 -21 -690 4 -44 9 -101 9 -127 1 -27 5 -48 9 -48 4 0 7 -10
7 -22 -1 -13 2 -39 5 -58 9 -43 17 -88 21 -115 1 -11 5 -27 8 -35 3 -8 11 -37
17 -65 17 -79 18 -86 41 -155 11 -36 22 -72 24 -80 2 -8 9 -28 16 -45 6 -16
13 -36 15 -43 6 -30 71 -183 121 -285 29 -59 53 -112 53 -117 0 -5 8 -14 18
-19 9 -6 14 -11 10 -11 -7 0 78 -148 91 -160 3 -3 13 -17 21 -31 17 -30 31
-49 110 -153 86 -113 138 -172 232 -265 129 -128 166 -162 243 -222 39 -30 72
-57 73 -61 2 -5 10 -8 18 -8 8 0 14 -4 14 -8 0 -5 12 -15 28 -23 15 -8 36 -22
46 -31 11 -10 26 -18 33 -18 7 0 13 -4 13 -10 0 -5 5 -10 11 -10 6 0 24 -9 39
-20 80 -57 400 -210 400 -192 0 4 4 2 8 -3 4 -6 34 -19 67 -29 33 -11 65 -23
70 -27 6 -3 18 -5 27 -4 10 2 18 -1 18 -6 0 -5 3 -8 8 -7 8 1 58 -10 82 -19 8
-4 26 -8 40 -10 42 -7 65 -11 65 -13 0 -2 22 -6 110 -19 39 -6 88 -14 110 -17
62 -10 452 -10 525 0 36 5 2033 9 4442 10 4000 1 4379 3 4390 18 12 14 31 19
133 34 17 3 72 14 123 25 52 12 101 22 110 24 9 2 18 4 20 5 1 2 7 4 12 5 6 1
11 3 13 5 1 1 11 3 22 5 31 6 219 68 225 74 3 3 12 7 20 9 56 12 407 175 422
196 4 6 8 7 8 3 0 -5 12 1 26 12 15 12 33 21 40 21 8 0 14 4 14 8 0 5 15 16
33 25 45 24 101 58 107 66 10 12 69 51 79 51 5 0 11 3 13 8 2 4 35 31 73 60
219 166 416 360 593 582 104 130 101 126 137 180 16 25 32 47 35 50 3 3 11 14
17 25 7 11 42 68 78 126 77 126 215 395 207 403 -3 3 -1 6 5 6 5 0 10 6 10 13
0 6 10 32 21 57 46 98 157 424 178 525 2 11 6 29 9 40 12 50 37 162 40 185 2
14 6 36 9 50 10 54 18 107 22 140 2 19 5 46 8 60 32 158 37 630 10 860 -4 36
-8 80 -8 97 -1 18 -3 33 -6 33 -3 0 -6 8 -6 18 -1 29 -24 171 -40 242 -3 14
-7 34 -9 45 -9 49 -17 84 -31 131 -8 28 -16 60 -18 70 -10 50 -96 302 -137
399 -14 35 -13 32 -23 68 -5 15 -12 27 -17 27 -5 0 -9 9 -9 19 0 11 -4 23 -10
26 -5 3 -10 14 -10 24 0 10 -7 24 -15 31 -8 6 -14 15 -13 18 2 14 -24 72 -33
72 -5 0 -9 7 -9 15 0 7 -14 38 -31 67 -16 29 -33 61 -36 71 -3 9 -9 17 -14 17
-5 0 -9 5 -9 11 0 6 -13 31 -30 56 -16 24 -30 46 -30 49 0 9 -123 189 -132
192 -4 2 -8 8 -8 14 0 10 -57 85 -97 127 -13 13 -23 27 -23 31 0 7 -9 18 -123
144 -98 106 -238 242 -315 304 -22 19 -50 41 -61 50 -37 31 -76 62 -131 102
-30 21 -61 44 -67 50 -7 6 -13 8 -13 5 0 -5 -28 17 -54 41 -7 6 -22 14 -34 18
-12 4 -28 13 -34 19 -40 38 -428 237 -462 237 -9 0 -16 5 -16 10 0 6 -7 10
-15 10 -9 0 -32 7 -53 16 -20 10 -46 19 -57 20 -11 2 -29 8 -40 13 -44 20
-216 73 -246 76 -8 1 -35 6 -60 13 -65 16 -102 25 -119 27 -31 4 -113 17 -133
21 -12 3 -49 7 -82 10 -33 3 -89 9 -125 14 -72 8 -429 5 -500 -4 -25 -3 -67
-8 -95 -11 -27 -2 -61 -7 -75 -10 -14 -3 -41 -7 -60 -9 -19 -2 -78 -14 -130
-26 -52 -13 -102 -23 -110 -25 -21 -3 -129 -34 -161 -46 -14 -6 -35 -11 -47
-12 -12 -1 -22 -5 -22 -9 0 -4 -8 -8 -18 -8 -10 0 -23 14 -31 33 -8 17 -27 52
-41 77 -15 25 -46 79 -70 120 -85 146 -305 463 -362 521 -8 8 -20 24 -29 35
-69 101 -439 473 -557 561 -20 16 -41 33 -47 40 -16 20 -186 143 -196 143 -6
0 -7 5 -4 10 3 6 0 10 -8 10 -8 0 -27 11 -43 25 -16 14 -34 25 -41 25 -6 0
-13 4 -15 8 -7 18 -338 217 -338 204 0 -4 -4 -2 -8 3 -11 16 -250 130 -387
185 -71 28 -135 52 -146 54 -8 1 -18 4 -24 7 -5 3 -44 16 -85 28 -41 12 -83
27 -92 32 -10 5 -26 9 -37 9 -10 0 -34 6 -52 14 -19 7 -42 12 -51 11 -10 -2
-18 0 -18 4 0 4 -6 8 -12 8 -7 0 -47 8 -88 17 -41 10 -88 20 -105 22 -16 2
-41 6 -55 9 -64 13 -208 34 -280 40 -79 7 -450 22 -453 18z"/>
</g>
</svg>
