<?xml version="1.0" standalone="no"?>
<!DOCTYPE svg PUBLIC "-//W3C//DTD SVG 20010904//EN"
 "http://www.w3.org/TR/2001/REC-SVG-20010904/DTD/svg10.dtd">
<svg version="1.0" xmlns="http://www.w3.org/2000/svg"
 width="768.000000pt" height="768.000000pt" viewBox="0 0 768.000000 768.000000"
 preserveAspectRatio="xMidYMid meet">
<metadata>
Created by potrace 1.11, written by Peter Selinger 2001-2013
</metadata>
<g transform="translate(0.000000,768.000000) scale(0.100000,-0.100000)"
fill="#000000" stroke="none">
<path d="M3398 6294 c-2 -1 -30 -5 -63 -8 -33 -3 -71 -8 -85 -10 -14 -3 -41
-7 -60 -10 -19 -3 -78 -17 -130 -31 -52 -13 -105 -27 -118 -30 -89 -21 -390
-161 -482 -225 -127 -87 -178 -125 -241 -177 -79 -67 -212 -201 -269 -272 -19
-24 -40 -49 -45 -55 -38 -41 -145 -202 -193 -288 -62 -112 -163 -327 -161
-341 0 -1 -4 -13 -9 -27 -5 -14 -20 -59 -32 -100 -13 -41 -25 -82 -28 -90 -3
-8 -6 -17 -7 -20 -1 -3 -5 -22 -9 -43 -5 -20 -11 -39 -15 -41 -3 -2 -40 -7
-80 -10 -78 -7 -253 -42 -280 -56 -9 -5 -38 -16 -66 -26 -111 -38 -278 -134
-380 -218 -114 -94 -305 -309 -305 -344 0 -5 -4 -12 -8 -14 -21 -8 -117 -197
-161 -318 -21 -59 -34 -99 -36 -115 -1 -5 -3 -12 -4 -15 -6 -12 -17 -64 -26
-120 -4 -25 -9 -54 -11 -65 -25 -128 -19 -370 11 -530 9 -44 17 -89 19 -100 5
-29 45 -153 64 -200 46 -114 171 -336 207 -370 6 -5 23 -27 38 -47 38 -51 170
-182 224 -220 23 -17 43 -35 43 -40 0 -4 5 -8 11 -8 6 0 25 -10 42 -22 74 -54
224 -127 331 -163 140 -46 227 -59 401 -58 88 0 1154 2 2369 3 1891 2 2213 5
2237 17 16 8 41 16 56 18 99 14 248 63 393 127 35 16 67 32 70 36 3 4 26 18
52 31 56 28 215 141 277 197 114 102 195 193 283 318 32 44 61 86 65 91 5 6
17 28 28 50 11 22 23 42 26 45 12 10 87 176 122 270 45 120 88 290 101 400 46
365 7 711 -114 1016 -30 75 -118 260 -133 279 -4 6 -26 39 -50 75 -49 77 -99
144 -109 148 -5 2 -8 7 -8 12 0 10 -98 117 -159 174 -24 23 -59 55 -78 73 -18
17 -33 29 -33 26 0 -2 -7 3 -16 11 -22 22 -199 138 -264 173 -30 16 -98 46
-150 67 -128 50 -141 55 -173 60 -16 3 -43 9 -60 15 -80 25 -239 44 -372 44
-150 1 -271 -14 -420 -52 -22 -5 -40 -9 -40 -8 -1 1 -13 21 -28 44 -15 24 -27
47 -27 53 0 5 -4 10 -8 10 -5 0 -14 11 -20 24 -13 28 -94 139 -166 226 -40 47
-219 225 -278 275 -25 22 -69 56 -97 75 -27 19 -50 38 -51 43 0 4 -4 7 -10 7
-8 0 -57 29 -96 57 -45 33 -244 130 -346 169 -136 52 -327 101 -425 109 -23 2
-47 6 -53 10 -11 7 -376 15 -382 9z"/>
</g>
</svg>
